<?xml version="1.0" encoding="utf-8"?>
<!-- Generator: Adobe Illustrator 27.3.1, SVG Export Plug-In . SVG Version: 6.00 Build 0)  -->
<svg version="1.1" id="Layer_1" xmlns="http://www.w3.org/2000/svg" xmlns:xlink="http://www.w3.org/1999/xlink" x="0px" y="0px"
	 viewBox="0 0 500 500" style="enable-background:new 0 0 500 500;" xml:space="preserve">
<style type="text/css">
	.st0{fill:#3D4D6D;}
</style>
<g>
	<path class="st0" d="M297.9,154.6c8.4-5.1,17.6-8.5,27.9-9.7c37.1-4,70.2,26.5,68.5,63.8c-0.2,5.7-1.2,11.5-2.6,17
		c-0.9,3.7-0.2,4.9,3.4,5.7c11.6,2.6,22.1,7.7,31.1,15.5c24.8,21.4,35.5,48.5,29.3,80.9c-6.8,35.6-32.1,59.9-67.4,66.3
		c-5.6,1-11.5,1.2-17.2,1.2c-78.3,0.1-156.7,0.3-235-0.1c-35.6-0.2-64.4-14.4-83.2-45.4c-14.1-23.2-17.2-48.5-9.7-74.6
		c8.3-28.9,26.8-49.2,54.5-60.9c3.5-1.5,4.5-3.4,4.6-7c0.3-26.6,8.8-50.2,26.9-70.1c18.4-20.3,41.3-31.5,68.5-33.9
		c31.4-2.7,58.4,7.1,81.1,28.7C285.6,138.9,291.3,146.9,297.9,154.6z"/>
</g>
</svg>
