<?xml version="1.0" encoding="utf-8"?>
<!-- Generator: Adobe Illustrator 27.3.1, SVG Export Plug-In . SVG Version: 6.00 Build 0)  -->
<svg version="1.1" id="Layer_1" xmlns="http://www.w3.org/2000/svg" xmlns:xlink="http://www.w3.org/1999/xlink" x="0px" y="0px"
	 viewBox="0 0 500 500" style="enable-background:new 0 0 500 500;" xml:space="preserve">
<style type="text/css">
	.st0{fill:#3D4D6D;}
</style>
<g>
	<path class="st0" d="M335.5,257.6c21.1-13.1,42.3-12.4,61.8,1.6c17.5,12.5,22.7,31.2,19.8,52.6c4.3,1.6,8.9,3,13.3,5.1
		c20.1,9.6,32,31.3,29.3,53c-2.8,22.1-20.1,41-41.7,45.2c-4.3,0.8-8.7,1.3-13,1.3c-57.6,0.1-115.3,0.1-172.9,0
		c-29.1,0-51.1-14.5-61.3-40.1c-13.7-34.1,6.2-74,41.8-83.2c5.2-1.3,6.8-3.4,7-8.7c1-27.7,25.9-53.2,53.5-56.2
		c25.5-2.7,45.4,6.4,60.6,26.8C334,255.6,334.5,256.3,335.5,257.6z"/>
	<path class="st0" d="M176.7,115c14.6-10.3,29.2-20.6,43.8-30.9c10.1-7.1,17.7-3.9,19.6,8.3c2.5,15.7,5.2,31.4,7.6,47.2
		c0.6,3.6,1.9,5.2,5.8,5.8c16.3,2.4,32.5,5.2,48.7,8.1c10.4,1.8,13.6,9.4,7.7,18c-7.2,10.6-14.5,21.1-21.9,31.5
		c-1,1.3-2.9,2.8-4.4,2.8c-15.1,0.2-29.5,3.2-43.7,11.2c-1.6-26-12.7-45.8-35.9-57.3c-15.4-7.7-32-8.4-48.1-2.9
		c-30.6,10.6-47.5,40.2-41.4,71.6c7,35.6,35.4,54.6,74.1,50.5c-1.6,1.2-2.6,2.1-3.6,2.7c-19.8,12.6-33,30-37.7,53.3
		c-0.7,3.7-2.2,6.3-5.5,8.2c-3.6,2.1-7,4.7-10.5,7c-8.6,5.6-15.9,2.7-17.8-7.4c-1.8-9.1-3.1-18.3-4.6-27.5
		c-1.3-7.6-2.7-15.2-3.8-22.8c-0.4-3-1.7-4-4.6-4.5c-16.6-2.6-33.2-5.3-49.8-8.2c-10.6-1.8-13.6-9.4-7.4-18.3
		c9.5-13.7,19-27.3,28.7-40.8c2.3-3.2,2.1-5.2-0.1-8.2c-9.6-13.3-19.1-26.8-28.5-40.3c-6.6-9.4-3.5-16.8,7.9-18.8
		c16.2-2.8,32.4-5.6,48.7-8c3.5-0.5,4.6-2,5.1-5.2c2.5-15.9,5.1-31.8,7.9-47.7c0.6-3.2,1.7-6.6,3.6-9.1c3.2-4.2,8.5-4.2,13.6-0.6
		c14.1,9.8,28.1,19.7,42.2,29.5C173.8,113.2,175.1,114,176.7,115z"/>
	<path class="st0" d="M134.9,216.6c0-22.9,19-41.7,42-41.7c22.5,0.1,41.4,19.2,41.3,41.8c-0.1,22.9-19,41.7-42,41.6
		C153.6,258.3,134.8,239.3,134.9,216.6z"/>
</g>
</svg>
