<?xml version="1.0" encoding="utf-8"?>
<!-- Generator: Adobe Illustrator 27.3.1, SVG Export Plug-In . SVG Version: 6.00 Build 0)  -->
<svg version="1.1" id="Layer_1" xmlns="http://www.w3.org/2000/svg" xmlns:xlink="http://www.w3.org/1999/xlink" x="0px" y="0px"
	 viewBox="0 0 500 500" style="enable-background:new 0 0 500 500;" xml:space="preserve">
<style type="text/css">
	.st0{fill:#3D4D6D;}
</style>
<g>
	<path class="st0" d="M266.5,88.6c21.9-22.7,47.5-28.2,74.9-17.2c32,12.8,42.3,39.6,39.5,72.4c9.1,2,18.3,3.1,26.8,6.1
		c28,9.6,45.3,29.4,51,58.3c7.3,37.1-10.2,71.2-44.3,87.3c-11.8,5.6-24.9,7.1-37.8,7.1c-84.2,0.2-168.5,0.2-252.7,0
		c-26.6-0.1-50-8.3-66.9-30.2c-16.6-21.7-21.2-45.8-13.1-71.9c6.9-22.3,21.1-38.7,42.6-48c6.2-2.7,7.2-5.9,6.7-12.4
		c-1.9-21.8,2.9-42.4,15.6-60.3c12.7-17.7,29.2-30.4,50.8-36.3c39.7-10.8,80.2,4.5,102.4,39.1C263.2,84.5,264.7,86.3,266.5,88.6z"/>
	<path class="st0" d="M191.1,408.2c0-9.9-0.2-19.7,0-29.6c0.4-15.7,10.6-24.8,24.1-21.9c6.8,1.5,11.3,5.7,13.3,12.2
		c1.1,3.5,1.7,7.3,1.8,11c0.2,18.8,0.3,37.7,0,56.5c-0.2,12.9-5.1,20.5-13.8,22.9c-13.9,3.9-25.1-5.5-25.5-21.6
		C190.9,427.9,191.1,418,191.1,408.2z"/>
	<path class="st0" d="M310,382.3c-0.7,12.6-0.7,25.1-2.3,37.4c-1.1,8.5-9.4,14.2-18,14.3c-7.8,0.1-16-5.9-18-13.9
		c-1.1-4.6-1.7-9.5-1.8-14.3c-0.2-16.7-0.2-33.3,0-50c0-4.1,0.6-8.3,1.6-12.3c2.1-8.3,9.4-13.5,18-13.6c9.3,0,16.9,4.8,18.1,13.8
		C309.3,356.6,309.3,369.5,310,382.3z"/>
	<path class="st0" d="M387.9,407.9c0,11.4,0.7,22.9-0.2,34.2c-1.1,15.8-18,23.6-30.4,13.9c-3.8-3-7.1-9.1-7.3-13.8
		c-0.7-22.8-0.7-45.6-0.1-68.4c0.3-10.8,9.1-18,19.1-17.8c10.3,0.3,18.2,7.5,18.8,18.3C388.4,385.5,387.9,396.7,387.9,407.9
		C387.9,407.9,387.9,407.9,387.9,407.9z"/>
	<path class="st0" d="M151,382.4c0,10.5,0.2,21.1-0.1,31.6c-0.2,7.7-3.2,14-10.5,17.7c-7.2,3.6-14,2.8-20.4-1.9
		c-6.3-4.6-7.6-11.5-7.7-18.6c-0.2-12.9-0.1-25.9,0-38.8c0.1-8.8-0.4-17.6,0.8-26.2c2.1-15.1,19.8-21.8,31-11.5
		c3.8,3.5,6.1,10.2,6.6,15.6C151.7,360.9,151,371.7,151,382.4z"/>
</g>
</svg>
