<?xml version="1.0" encoding="utf-8"?>
<!-- Generator: Adobe Illustrator 27.3.1, SVG Export Plug-In . SVG Version: 6.00 Build 0)  -->
<svg version="1.1" id="Layer_1" xmlns="http://www.w3.org/2000/svg" xmlns:xlink="http://www.w3.org/1999/xlink" x="0px" y="0px"
	 viewBox="0 0 500 500" style="enable-background:new 0 0 500 500;" xml:space="preserve">
<style type="text/css">
	.st0{fill:#3D4D6D;}
</style>
<g>
	<path class="st0" d="M124.8,354.6c-3.8,1.8-6,2.8-8.2,3.8c-6.1,3-11.9,6.7-18.3,8.8c-11.1,3.7-24.2-2.2-28.9-12.4
		c-5.8-12.4-3.2-26.2,6.7-33.2c5.2-3.6,10.9-6.5,16.3-9.8c1.8-1.1,3.4-2.2,6.6-4.4c-5.8-1.7-9.9-2.8-14-4
		c-10.7-3-17.5-10.8-17.5-20.4c-0.1-12.5,11.6-21.4,25.4-18.3c15.4,3.4,30.6,7.7,45.7,12.1c6.2,1.8,11.2,1.1,16.7-2.2
		c13.5-8.1,27.4-15.7,42-23.9c-1.9-1.8-3.1-3.5-4.8-4.4c-13.5-7.8-26.9-15.5-40.6-23c-2.3-1.3-5.8-1.6-8.5-1
		c-16.4,4-32.6,8.4-48.9,12.8c-11.5,3.1-21.9-1.8-25.1-11.8c-3.7-11.6,1.6-21.7,13.6-25.9c4.6-1.6,9.3-2.9,14-4.3
		c0.1-0.7,0.2-1.4,0.2-2.1c-4.6-2.6-9.3-5.2-13.8-7.9c-9.4-5.6-16.8-12.6-16.9-24.7c-0.2-19,18.6-31.8,36.1-24.3
		c5,2.1,9.6,5.2,14.4,7.8c2,1.1,4.2,2.1,7.9,3.9c-1.4-5.8-2.5-10-3.4-14.1c-1.9-8.6-0.1-16.2,7-21.8c6.2-4.8,15.7-5.6,21.4-0.5
		c4.2,3.7,7.8,9.1,9.5,14.4c4.8,15.2,8.4,30.9,12.7,46.2c0.7,2.5,2.3,5.6,4.4,6.8c14.3,8.6,28.8,16.7,43.3,25c0.9,0.5,2,0.5,3.8,0.8
		c0.3-2.6,0.8-4.9,0.8-7.2c0.1-14.3,0.3-28.5-0.2-42.8c-0.1-3.5-1.9-7.7-4.3-10.3c-11.3-11.9-23.2-23.3-34.7-35.1
		c-5.6-5.8-8.8-12.6-6-21c2.4-7.4,7.7-11.6,15-13.2c8-1.7,13.9,2.6,19.5,7.4c2.9,2.5,5.6,5.3,8.4,7.9c0.8-0.2,1.5-0.4,2.3-0.7
		c0-5.8-0.5-11.6,0.1-17.3c0.6-6.2,1-12.9,3.7-18.3c5.4-10.7,16.5-14.2,30.1-11.1c9,2.1,16.6,11,17.4,21.6
		c0.6,6.5,0.2,13.2,0.4,19.7c0,2.1,0.4,4.1,0.6,6.2c0.9,0.6,1.9,1.3,2.8,1.9c2.9-3.8,5.4-8,8.8-11.2c5.7-5.2,12.3-8.5,20.4-5.5
		c7.5,2.7,11.9,8.2,13.1,15.9c1.2,7.6-2.7,13.5-7.7,18.7c-10.9,11.1-21.9,22.2-33.1,33c-3.6,3.5-5.1,7.2-5,12.2
		c0.2,14.5,0,29,0.1,43.5c0,1.9,0.4,3.7,0.7,7c7.4-4.2,13.8-7.8,20.1-11.4c8.2-4.7,16.6-9,24.4-14.2c3.2-2.2,6.2-6.2,7.3-10
		c4.8-15.7,8.6-31.7,13.1-47.5c2.9-10,10.5-15.1,20.7-14.6c7.7,0.3,14.8,6.5,16.5,15.5c0.7,3.9-0.3,8.2-0.8,12.3
		c-0.5,3.4-1.5,6.7-2.8,12.3c6.9-3.9,12.2-6.9,17.6-9.9c11.5-6.4,23.7-5.6,32.4,2.3c13.9,12.6,10.8,33-6.7,43.5
		c-5,3-10.1,5.9-16.7,9.7c3.4,1.5,5.1,2.4,7,3c3.5,1.1,7.3,1.7,10.7,3.2c10.1,4.3,15.6,15.2,12.6,24.7c-2.9,9.3-14.6,15.4-25.3,12.7
		c-16.6-4.2-33-8.8-49.6-12.9c-2.8-0.7-6.6-0.3-9.1,1.1c-13.5,7.4-26.7,15.1-39.9,22.9c-1.6,0.9-2.9,2.5-4.9,4.2
		c15.9,9.5,31,18.7,46.4,27.5c1.8,1,4.7,0.9,6.8,0.3c15.7-4.2,31.2-8.6,46.8-13c15.5-4.3,26.6,1.9,28.6,16.1
		c1.4,10-5.9,18.9-18.3,22.2c-3.6,1-7.1,2-11.3,4.7c5.1,3,10.2,6.1,15.3,9c11.9,6.7,18.4,19,15.6,29.8c-4.8,18.4-22.6,26-39.7,16.9
		c-5.6-3-11-6.2-17.9-10.1c1.2,6.8,2.2,12.2,3,17.6c1.6,10.9-5,20.4-15.3,22.6c-8.5,1.8-18.9-4.9-21.7-14.5
		c-4.6-16-8.6-32.2-13.4-48.1c-1.1-3.7-4.1-7.8-7.4-9.8c-14.1-8.7-28.7-16.7-44-25.5c-0.5,2.8-1.1,4.9-1.1,6.9
		c-0.1,14.9-0.3,29.9,0.2,44.8c0.1,3.3,1.8,7.3,4.1,9.7c11,11.6,22.6,22.7,33.8,34.1c8.7,8.8,10,17.9,4.5,26.7
		c-5.4,8.6-16.9,11.6-25.3,6c-5.6-3.7-10.4-8.5-16.4-13.6c-0.4,3-0.8,5.5-0.9,7.9c-0.4,7.6,0,15.4-1.4,22.9
		c-2.2,11.9-13.6,19.4-25.9,18.5c-13.7-1.1-23.2-9.7-24-22.5c-0.5-8.4-0.1-16.9-0.1-25.4c-0.8-0.3-1.6-0.5-2.4-0.8
		c-3,2.7-5.9,5.4-8.8,8.1c-5.3,4.9-11.2,8.4-18.9,7.1c-13.1-2.1-20.2-15.8-14-27.4c1.6-3,4-5.8,6.4-8.3c10.9-11.1,22.1-22,32.9-33.2
		c2-2.1,4.2-5.1,4.2-7.7c0.4-16.5,0.2-32.9,0.1-49.4c0-1-0.6-2-1.2-3.7c-3.1,1.4-5.9,2.5-8.4,4c-12.3,7.2-24.6,14.3-36.7,21.9
		c-2.6,1.7-5,4.9-5.9,7.9c-4.6,15.5-8.8,31.2-13.1,46.8c-3.8,13.7-15,17.7-23,16.1c-11.4-2.3-17.2-13.3-14.5-25.6
		C122.4,364.3,123.4,360.4,124.8,354.6z"/>
</g>
</svg>
