<?xml version="1.0" encoding="utf-8"?>
<!-- Generator: Adobe Illustrator 27.3.1, SVG Export Plug-In . SVG Version: 6.00 Build 0)  -->
<svg version="1.1" id="Layer_1" xmlns="http://www.w3.org/2000/svg" xmlns:xlink="http://www.w3.org/1999/xlink" x="0px" y="0px"
	 viewBox="0 0 500 500" style="enable-background:new 0 0 500 500;" xml:space="preserve">
<style type="text/css">
	.st0{fill:#3D4D6D;}
</style>
<g>
	<path class="st0" d="M265.9,88.6c5.3-4.1,9.7-8.4,14.9-11.6c24.1-14.7,48.9-14.3,72.2,0.7c22.3,14.4,30.6,36.6,28.2,62.8
		c-0.4,4.1,1.3,5,4.5,5.5c6.9,1.2,14,1.9,20.7,3.8c40.9,12,64.6,57.8,51,98.4c-10.8,32.1-33.2,51.3-66.9,54
		c-24.4,1.9-49.1,0.4-74.2,0.4c0.8-2.2,1.6-4.6,2.7-6.9c6-12.2,12.3-24.4,18.2-36.6c11.5-23.4,3.3-48.4-19.7-58.1
		c-15-6.3-28.8-2.5-41.2,7.5c-38.3,30.6-76.7,61.1-115.2,91.5c-2.4,1.9-5.8,3.7-8.7,3.6c-14.5-0.1-29.1,0-43.5-1.4
		c-38-3.8-65.9-32.9-69.3-71.3c-2.9-32.9,16.3-65.2,47.1-78.4c5.1-2.2,6.5-4.3,6-10.1c-3.2-37.8,12.9-72.2,47.9-91.2
		c44.1-23.9,96.5-8.7,121.6,32.4C263.1,85.3,264.3,86.5,265.9,88.6z"/>
	<path class="st0" d="M271.9,330.7c13.8,0,26.1,0,38.3,0c5.7,0,11.5-0.1,17.2,0c6.4,0.2,11.7,2.1,13.8,9c1.9,6.5-0.2,11.7-5.3,15.7
		c-22,17.6-44,35.2-65.9,52.8c-20.3,16.2-40.4,32.6-61,48.4c-3.5,2.7-8.7,5-13,4.7c-9.8-0.7-13.8-9.9-9-19.9
		c6.1-12.9,12.8-25.5,19.1-38.3c6.7-13.6,13.3-27.2,20-40.9c0.6-1.3,1.1-2.8,2-5.2c-2.9-0.2-5.1-0.6-7.4-0.6c-15.4,0-30.8,0-46.2,0
		c-8,0-13.6-3.3-15.5-8.9c-2-6,0.2-10.9,7-16.3c42.1-33.7,84.2-67.3,126.2-101c6.4-5.1,13.7-6,18.7-2c5.2,4,5.9,10.5,1.9,18.6
		c-12.3,24.8-24.6,49.7-36.9,74.5C274.7,323.9,273.7,326.6,271.9,330.7z"/>
</g>
</svg>
