<?xml version="1.0" encoding="utf-8"?>
<!-- Generator: Adobe Illustrator 27.3.1, SVG Export Plug-In . SVG Version: 6.00 Build 0)  -->
<svg version="1.1" id="Layer_1" xmlns="http://www.w3.org/2000/svg" xmlns:xlink="http://www.w3.org/1999/xlink" x="0px" y="0px"
	 viewBox="0 0 500 500" style="enable-background:new 0 0 500 500;" xml:space="preserve">
<style type="text/css">
	.st0{fill:#3D4D6D;}
</style>
<g>
	<path class="st0" d="M170.2,40c1.8,0.9,5.2,2,8,3.9c22.2,15.1,44.4,30.3,66.4,45.7c4.1,2.9,7,2.9,11,0.1
		c21.8-15.3,43.8-30.4,65.8-45.4c12.1-8.2,21.3-3.9,23.9,10.5c4.5,25.6,9.4,51.1,13.8,76.7c1.1,6.3,4.1,8.5,10.2,9.5
		c21.5,3.6,42.9,7.8,64.4,11.8c4.3,0.8,8.6,1.4,12.9,2.4c13.4,3.2,16.8,11.6,9.1,23.2c-10.2,15.3-20.7,30.3-31.2,45.4
		c-4.7,6.8-9.4,13.7-14.2,20.4c-2.8,3.9-2.8,7,0.1,11.1c15.2,21.6,30,43.5,45,65.3c8.5,12.3,4.8,21-10,23.8
		c-26.2,4.9-52.3,10-78.5,14.7c-4.6,0.8-6.6,2.8-7.4,7.4c-4.5,25.8-9.5,51.5-14,77.3c-2.7,15.5-12,19.6-25,10.7
		c-21.8-15-43.6-29.8-65.3-44.9c-3.6-2.5-6.1-2.7-9.8-0.1c-20.9,14.7-42,29-63.1,43.5c-0.2,0.1-0.3,0.3-0.5,0.4
		c-15,10.6-23.5,6.9-26.7-11.1c-4.6-25.6-9.6-51.1-14.3-76.6c-0.7-4-2.2-5.7-6.5-6.5c-26.4-4.7-52.8-9.9-79.2-14.9
		c-14.6-2.7-18.5-11.5-10-23.9c14.4-21.1,28.8-42.2,43.6-63.1c3.8-5.4,4.5-9.2,0.4-15c-14.9-20.8-29.2-41.9-43.6-63
		c-8.8-13-4.5-22.4,11.1-25.1c25.8-4.5,51.5-9.3,77.3-13.9c4-0.7,6-2.4,6.8-6.6c4.8-26.4,9.8-52.8,14.6-79.2
		C156.8,46.3,162.4,39.9,170.2,40z M355.1,249.8c0.1-58.3-46.1-104.6-104.7-105.2c-57.3-0.6-105.5,47.3-105.6,104.8
		c-0.1,58,47.4,105.5,105.5,105.6C308.1,355.2,355.1,308.1,355.1,249.8z"/>
	<path class="st0" d="M250.2,328.3c42.9,0,78.2-35.3,78.4-78.5c0.2-42.8-35.4-78.4-78.5-78.4c-42.8,0-78.9,35.5-78.5,78.5
		C172.1,293.9,206.9,327.7,250.2,328.3z"/>
	<path class="st0" d="M250.2,328.3c-43.3-0.6-78.1-34.3-78.5-78.4c-0.5-43,35.7-78.5,78.5-78.5c43.1,0,78.7,35.6,78.5,78.4
		C328.4,292.9,293.1,328.3,250.2,328.3z"/>
</g>
</svg>
